<?xml version="1.0" encoding="us-ascii" standalone="no"?><svg xmlns="http://www.w3.org/2000/svg" xmlns:xlink="http://www.w3.org/1999/xlink" contentStyleType="text/css" height="885px" preserveAspectRatio="none" style="width:1200px;height:885px;background:#FFFFFF;" version="1.1" viewBox="0 0 1200 885" width="1200px" zoomAndPan="magnify"><defs/><g><rect fill="#FFFFFF" height="864.8081" style="stroke:#181818;stroke-width:1.5;" width="1189.5" x="5" y="15"/><path d="M344,15 L344,24.2969 L334,34.2969 L5,34.2969 " fill="none" style="stroke:#181818;stroke-width:1.5;"/><text fill="#000000" font-family="sans-serif" font-size="14" lengthAdjust="spacing" textLength="329" x="8" y="28.9951">&#1055;&#1088;&#1086;&#1094;&#1077;&#1089;&#1089; &#1087;&#1086; &#1088;&#1077;&#1075;&#1080;&#1089;&#1090;&#1088;&#1072;&#1094;&#1080;&#1080; &#1082;&#1091;&#1088;&#1089;&#1072; &#1074; &#1043;&#1048;&#1057; &#1057;&#1062;&#1054;&#1057;</text><rect fill="#DDDDDD" height="819.6484" style="stroke:#181818;stroke-width:0.5;" width="128" x="210.5" y="43.8628"/><text fill="#000000" font-family="sans-serif" font-size="13" font-weight="bold" lengthAdjust="spacing" textLength="122" x="213.5" y="55.9297">External Service</text><rect fill="#DDDDDD" height="819.6484" style="stroke:#181818;stroke-width:0.5;" width="566.5" x="610" y="43.8628"/><text fill="#000000" font-family="sans-serif" font-size="13" font-weight="bold" lengthAdjust="spacing" textLength="119" x="833.75" y="55.9297">Internal Service</text><rect fill="#FFFFFF" height="29.1328" style="stroke:#181818;stroke-width:1.0;" width="10" x="269.5" y="199.5581"/><rect fill="#FFFFFF" height="29.1328" style="stroke:#181818;stroke-width:1.0;" width="10" x="269.5" y="584.2847"/><rect fill="#FFFFFF" height="87.3984" style="stroke:#181818;stroke-width:1.0;" width="10" x="670.5" y="300.9565"/><rect fill="#FFFFFF" height="174.7969" style="stroke:#181818;stroke-width:1.0;" width="10" x="670.5" y="526.019"/><rect fill="#FFFFFF" height="29.1328" style="stroke:#181818;stroke-width:1.0;" width="10" x="1061.5" y="330.0894"/><rect fill="#FFFFFF" height="29.1328" style="stroke:#181818;stroke-width:1.0;" width="10" x="1061.5" y="526.019"/><rect fill="#FFFFFF" height="29.1328" style="stroke:#181818;stroke-width:1.0;" width="10" x="1061.5" y="642.5503"/><line style="stroke:#181818;stroke-width:0.5;stroke-dasharray:5.0,5.0;" x1="78" x2="78" y1="125.2925" y2="784.2144"/><line style="stroke:#181818;stroke-width:0.5;stroke-dasharray:5.0,5.0;" x1="274.5" x2="274.5" y1="125.2925" y2="784.2144"/><line style="stroke:#181818;stroke-width:0.5;stroke-dasharray:5.0,5.0;" x1="675" x2="675" y1="125.2925" y2="784.2144"/><line style="stroke:#181818;stroke-width:0.5;stroke-dasharray:5.0,5.0;" x1="1066.5" x2="1066.5" y1="125.2925" y2="784.2144"/><text fill="#000000" font-family="sans-serif" font-size="14" lengthAdjust="spacing" textLength="121" x="15" y="121.9907">&#1040;&#1076;&#1084;&#1080;&#1085;&#1080;&#1089;&#1090;&#1088;&#1072;&#1090;&#1086;&#1088;</text><ellipse cx="78.5" cy="57.4956" fill="#E2E2F0" rx="8" ry="8" style="stroke:#181818;stroke-width:0.5;"/><path d="M78.5,65.4956 L78.5,92.4956 M65.5,73.4956 L91.5,73.4956 M78.5,92.4956 L65.5,107.4956 M78.5,92.4956 L91.5,107.4956 " fill="none" style="stroke:#181818;stroke-width:0.5;"/><text fill="#000000" font-family="sans-serif" font-size="14" lengthAdjust="spacing" textLength="121" x="15" y="796.2095">&#1040;&#1076;&#1084;&#1080;&#1085;&#1080;&#1089;&#1090;&#1088;&#1072;&#1090;&#1086;&#1088;</text><ellipse cx="78.5" cy="808.0112" fill="#E2E2F0" rx="8" ry="8" style="stroke:#181818;stroke-width:0.5;"/><path d="M78.5,816.0112 L78.5,843.0112 M65.5,824.0112 L91.5,824.0112 M78.5,843.0112 L65.5,858.0112 M78.5,843.0112 L91.5,858.0112 " fill="none" style="stroke:#181818;stroke-width:0.5;"/><rect fill="#E2E2F0" height="30.2969" rx="2.5" ry="2.5" style="stroke:#181818;stroke-width:0.5;" width="108" x="220.5" y="93.9956"/><text fill="#000000" font-family="sans-serif" font-size="14" lengthAdjust="spacing" textLength="94" x="227.5" y="113.9907">online.edu.ru</text><rect fill="#E2E2F0" height="30.2969" rx="2.5" ry="2.5" style="stroke:#181818;stroke-width:0.5;" width="108" x="220.5" y="783.2144"/><text fill="#000000" font-family="sans-serif" font-size="14" lengthAdjust="spacing" textLength="94" x="227.5" y="803.2095">online.edu.ru</text><rect fill="#E2E2F0" height="30.2969" rx="2.5" ry="2.5" style="stroke:#181818;stroke-width:0.5;" width="123" x="614" y="93.9956"/><text fill="#000000" font-family="sans-serif" font-size="14" lengthAdjust="spacing" textLength="109" x="621" y="113.9907">mook.sibsau.ru</text><rect fill="#E2E2F0" height="30.2969" rx="2.5" ry="2.5" style="stroke:#181818;stroke-width:0.5;" width="123" x="614" y="783.2144"/><text fill="#000000" font-family="sans-serif" font-size="14" lengthAdjust="spacing" textLength="109" x="621" y="803.2095">mook.sibsau.ru</text><text fill="#000000" font-family="sans-serif" font-size="14" lengthAdjust="spacing" textLength="206" x="960.5" y="121.9907">&#1041;&#1072;&#1079;&#1072; &#1076;&#1072;&#1085;&#1085;&#1099;&#1093; mook.sibsau.ru</text><path d="M1048.5,72.9956 C1048.5,62.9956 1066.5,62.9956 1066.5,62.9956 C1066.5,62.9956 1084.5,62.9956 1084.5,72.9956 L1084.5,98.9956 C1084.5,108.9956 1066.5,108.9956 1066.5,108.9956 C1066.5,108.9956 1048.5,108.9956 1048.5,98.9956 L1048.5,72.9956 " fill="#E2E2F0" style="stroke:#181818;stroke-width:1.5;"/><path d="M1048.5,72.9956 C1048.5,82.9956 1066.5,82.9956 1066.5,82.9956 C1066.5,82.9956 1084.5,82.9956 1084.5,72.9956 " fill="none" style="stroke:#181818;stroke-width:1.5;"/><text fill="#000000" font-family="sans-serif" font-size="14" lengthAdjust="spacing" textLength="206" x="960.5" y="796.2095">&#1041;&#1072;&#1079;&#1072; &#1076;&#1072;&#1085;&#1085;&#1099;&#1093; mook.sibsau.ru</text><path d="M1048.5,809.5112 C1048.5,799.5112 1066.5,799.5112 1066.5,799.5112 C1066.5,799.5112 1084.5,799.5112 1084.5,809.5112 L1084.5,835.5112 C1084.5,845.5112 1066.5,845.5112 1066.5,845.5112 C1066.5,845.5112 1048.5,845.5112 1048.5,835.5112 L1048.5,809.5112 " fill="#E2E2F0" style="stroke:#181818;stroke-width:1.5;"/><path d="M1048.5,809.5112 C1048.5,819.5112 1066.5,819.5112 1066.5,819.5112 C1066.5,819.5112 1084.5,819.5112 1084.5,809.5112 " fill="none" style="stroke:#181818;stroke-width:1.5;"/><rect fill="#FFFFFF" height="29.1328" style="stroke:#181818;stroke-width:1.0;" width="10" x="269.5" y="199.5581"/><rect fill="#FFFFFF" height="29.1328" style="stroke:#181818;stroke-width:1.0;" width="10" x="269.5" y="584.2847"/><rect fill="#FFFFFF" height="87.3984" style="stroke:#181818;stroke-width:1.0;" width="10" x="670.5" y="300.9565"/><rect fill="#FFFFFF" height="174.7969" style="stroke:#181818;stroke-width:1.0;" width="10" x="670.5" y="526.019"/><rect fill="#FFFFFF" height="29.1328" style="stroke:#181818;stroke-width:1.0;" width="10" x="1061.5" y="330.0894"/><rect fill="#FFFFFF" height="29.1328" style="stroke:#181818;stroke-width:1.0;" width="10" x="1061.5" y="526.019"/><rect fill="#FFFFFF" height="29.1328" style="stroke:#181818;stroke-width:1.0;" width="10" x="1061.5" y="642.5503"/><rect fill="#EEEEEE" height="3" style="stroke:#EEEEEE;stroke-width:1.0;" width="1167.5" x="10" y="155.8589"/><line style="stroke:#000000;stroke-width:1.0;" x1="10" x2="1177.5" y1="155.8589" y2="155.8589"/><line style="stroke:#000000;stroke-width:1.0;" x1="10" x2="1177.5" y1="158.8589" y2="158.8589"/><rect fill="#EEEEEE" height="23.1328" style="stroke:#000000;stroke-width:2.0;" width="172" x="507.75" y="145.2925"/><text fill="#000000" font-family="sans-serif" font-size="13" font-weight="bold" lengthAdjust="spacing" textLength="153" x="513.75" y="161.3594">&#1056;&#1077;&#1075;&#1080;&#1089;&#1090;&#1088;&#1072;&#1094;&#1080;&#1103; &#1079;&#1072;&#1103;&#1074;&#1082;&#1080;</text><polygon fill="#181818" points="257.5,195.5581,267.5,199.5581,257.5,203.5581,261.5,199.5581" style="stroke:#181818;stroke-width:1.0;"/><line style="stroke:#181818;stroke-width:1.0;" x1="78.5" x2="263.5" y1="199.5581" y2="199.5581"/><text fill="#000000" font-family="sans-serif" font-size="13" lengthAdjust="spacing" textLength="166" x="85.5" y="194.4922">&#1057;&#1086;&#1079;&#1076;&#1072;&#1085;&#1080;&#1077; &#1085;&#1086;&#1074;&#1086;&#1077;&#1081; &#1079;&#1072;&#1103;&#1074;&#1082;&#1080;</text><polygon fill="#181818" points="89.5,224.6909,79.5,228.6909,89.5,232.6909,85.5,228.6909" style="stroke:#181818;stroke-width:1.0;"/><line style="stroke:#181818;stroke-width:1.0;stroke-dasharray:2.0,2.0;" x1="83.5" x2="273.5" y1="228.6909" y2="228.6909"/><text fill="#000000" font-family="sans-serif" font-size="13" lengthAdjust="spacing" textLength="139" x="95.5" y="223.625">&#1042;&#1086;&#1079;&#1074;&#1088;&#1072;&#1097;&#1077;&#1085;&#1080;&#1077; &#1086;&#1090;&#1074;&#1077;&#1090;&#1072;</text><rect fill="#EEEEEE" height="3" style="stroke:#EEEEEE;stroke-width:1.0;" width="1167.5" x="10" y="257.2573"/><line style="stroke:#000000;stroke-width:1.0;" x1="10" x2="1177.5" y1="257.2573" y2="257.2573"/><line style="stroke:#000000;stroke-width:1.0;" x1="10" x2="1177.5" y1="260.2573" y2="260.2573"/><rect fill="#EEEEEE" height="23.1328" style="stroke:#000000;stroke-width:2.0;" width="307" x="440.25" y="246.6909"/><text fill="#000000" font-family="sans-serif" font-size="13" font-weight="bold" lengthAdjust="spacing" textLength="288" x="446.25" y="262.7578">&#1056;&#1077;&#1075;&#1080;&#1089;&#1090;&#1088;&#1072;&#1094;&#1080;&#1103; &#1082;&#1091;&#1088;&#1089;&#1072; &#1076;&#1083;&#1103; &#1088;&#1072;&#1073;&#1086;&#1090;&#1099; &#1089; &#1043;&#1048;&#1057;</text><polygon fill="#181818" points="658.5,296.9565,668.5,300.9565,658.5,304.9565,662.5,300.9565" style="stroke:#181818;stroke-width:1.0;"/><line style="stroke:#181818;stroke-width:1.0;" x1="78.5" x2="664.5" y1="300.9565" y2="300.9565"/><text fill="#000000" font-family="sans-serif" font-size="13" lengthAdjust="spacing" textLength="263" x="85.5" y="295.8906">&#1042;&#1099;&#1073;&#1086;&#1088; &#1082;&#1091;&#1088;&#1089;&#1072; &#1076;&#1083;&#1103; &#1086;&#1090;&#1087;&#1088;&#1072;&#1074;&#1082;&#1080; &#1074; &#1043;&#1048;&#1057; &#1057;&#1062;&#1054;&#1057;</text><polygon fill="#181818" points="1049.5,326.0894,1059.5,330.0894,1049.5,334.0894,1053.5,330.0894" style="stroke:#181818;stroke-width:1.0;"/><line style="stroke:#181818;stroke-width:1.0;" x1="680.5" x2="1055.5" y1="330.0894" y2="330.0894"/><text fill="#000000" font-family="sans-serif" font-size="13" lengthAdjust="spacing" textLength="340" x="687.5" y="325.0234">&#1057;&#1086;&#1079;&#1076;&#1072;&#1085;&#1080;&#1077; &#1079;&#1072;&#1087;&#1080;&#1089;&#1080; &#1086;&#1073; &#1086;&#1090;&#1087;&#1088;&#1072;&#1074;&#1082;&#1077; &#1076;&#1072;&#1085;&#1085;&#1099;&#1093; &#1074; &#1043;&#1048;&#1057; &#1057;&#1062;&#1054;&#1057;</text><polygon fill="#181818" points="691.5,355.2222,681.5,359.2222,691.5,363.2222,687.5,359.2222" style="stroke:#181818;stroke-width:1.0;"/><line style="stroke:#181818;stroke-width:1.0;stroke-dasharray:2.0,2.0;" x1="685.5" x2="1065.5" y1="359.2222" y2="359.2222"/><text fill="#000000" font-family="sans-serif" font-size="13" lengthAdjust="spacing" textLength="138" x="697.5" y="354.1563">&#1056;&#1077;&#1079;&#1091;&#1083;&#1100;&#1090;&#1072;&#1090; &#1086;&#1087;&#1077;&#1088;&#1072;&#1094;&#1080;&#1080;</text><polygon fill="#181818" points="89.5,384.355,79.5,388.355,89.5,392.355,85.5,388.355" style="stroke:#181818;stroke-width:1.0;"/><line style="stroke:#181818;stroke-width:1.0;stroke-dasharray:2.0,2.0;" x1="83.5" x2="674.5" y1="388.355" y2="388.355"/><text fill="#000000" font-family="sans-serif" font-size="13" lengthAdjust="spacing" textLength="139" x="95.5" y="383.2891">&#1042;&#1086;&#1079;&#1074;&#1088;&#1072;&#1097;&#1077;&#1085;&#1080;&#1077; &#1086;&#1090;&#1074;&#1077;&#1090;&#1072;</text><rect fill="#EEEEEE" height="3" style="stroke:#EEEEEE;stroke-width:1.0;" width="1167.5" x="10" y="416.9214"/><line style="stroke:#000000;stroke-width:1.0;" x1="10" x2="1177.5" y1="416.9214" y2="416.9214"/><line style="stroke:#000000;stroke-width:1.0;" x1="10" x2="1177.5" y1="419.9214" y2="419.9214"/><rect fill="#EEEEEE" height="23.1328" style="stroke:#000000;stroke-width:2.0;" width="273" x="457.25" y="406.355"/><text fill="#000000" font-family="sans-serif" font-size="13" font-weight="bold" lengthAdjust="spacing" textLength="254" x="463.25" y="422.4219">&#1054;&#1090;&#1087;&#1088;&#1072;&#1074;&#1082;&#1072; &#1087;&#1072;&#1089;&#1087;&#1086;&#1088;&#1090;&#1086;&#1074; &#1074; &#1043;&#1048;&#1057; &#1057;&#1062;&#1054;&#1057;</text><path d="M680,444.4878 L680,499.4878 L1062,499.4878 L1062,454.4878 L1052,444.4878 L680,444.4878 " fill="#FEFFDD" style="stroke:#181818;stroke-width:0.5;"/><path d="M1052,444.4878 L1052,454.4878 L1062,454.4878 L1052,444.4878 " fill="#FEFFDD" style="stroke:#181818;stroke-width:0.5;"/><text fill="#000000" font-family="sans-serif" font-size="13" lengthAdjust="spacing" textLength="284" x="686" y="461.5547">&#1055;&#1088;&#1086;&#1094;&#1077;&#1089;&#1089; &#1073;&#1091;&#1076;&#1077;&#1090; &#1074;&#1099;&#1079;&#1099;&#1074;&#1072;&#1090;&#1089;&#1103; &#1073;&#1091;&#1076;&#1077;&#1090; &#1088;&#1072;&#1079; &#1074; &#1095;&#1072;&#1089;</text><text fill="#000000" font-family="sans-serif" font-size="13" lengthAdjust="spacing" textLength="357" x="686" y="476.6875">&#1095;&#1077;&#1088;&#1077;&#1079; "&#1046;&#1091;&#1088;&#1085;&#1072;&#1083; &#1079;&#1072;&#1076;&#1072;&#1095;" &#1074; Moodle &#1080; &#1073;&#1091;&#1076;&#1077;&#1090; &#1074;&#1099;&#1087;&#1086;&#1083;&#1085;&#1103;&#1090;&#1100;&#1089;&#1103;</text><text fill="#000000" font-family="sans-serif" font-size="13" lengthAdjust="spacing" textLength="179" x="686" y="491.8203">&#1087;&#1086;&#1082;&#1072; &#1077;&#1089;&#1090;&#1100;, &#1095;&#1090;&#1086; &#1086;&#1090;&#1087;&#1088;&#1072;&#1074;&#1083;&#1103;&#1090;&#1100;.</text><polygon fill="#181818" points="1049.5,522.019,1059.5,526.019,1049.5,530.019,1053.5,526.019" style="stroke:#181818;stroke-width:1.0;"/><line style="stroke:#181818;stroke-width:1.0;" x1="680.5" x2="1055.5" y1="526.019" y2="526.019"/><text fill="#000000" font-family="sans-serif" font-size="13" lengthAdjust="spacing" textLength="367" x="687.5" y="520.9531">&#1055;&#1086;&#1083;&#1091;&#1095;&#1080;&#1090;&#1100; &#1085;&#1077; &#1086;&#1090;&#1087;&#1088;&#1072;&#1074;&#1083;&#1077;&#1085;&#1085;&#1099;&#1081; &#1087;&#1072;&#1089;&#1087;&#1086;&#1088;&#1090; &#1082;&#1091;&#1088;&#1089;&#1072; &#1074; &#1043;&#1048;&#1057; &#1057;&#1062;&#1054;&#1057;</text><polygon fill="#181818" points="691.5,551.1519,681.5,555.1519,691.5,559.1519,687.5,555.1519" style="stroke:#181818;stroke-width:1.0;"/><line style="stroke:#181818;stroke-width:1.0;stroke-dasharray:2.0,2.0;" x1="685.5" x2="1065.5" y1="555.1519" y2="555.1519"/><text fill="#000000" font-family="sans-serif" font-size="13" lengthAdjust="spacing" textLength="88" x="697.5" y="550.0859">&#1055;&#1072;&#1089;&#1087;&#1086;&#1088;&#1090; &#1077;&#1089;&#1090;&#1100;</text><polygon fill="#181818" points="290.5,580.2847,280.5,584.2847,290.5,588.2847,286.5,584.2847" style="stroke:#181818;stroke-width:1.0;"/><line style="stroke:#181818;stroke-width:1.0;" x1="284.5" x2="669.5" y1="584.2847" y2="584.2847"/><text fill="#000000" font-family="sans-serif" font-size="13" lengthAdjust="spacing" textLength="366" x="296.5" y="579.2188">&#1060;&#1086;&#1085;&#1086;&#1074;&#1072;&#1103; &#1086;&#1090;&#1087;&#1088;&#1072;&#1074;&#1082;&#1072; &#1079;&#1072;&#1087;&#1088;&#1086;&#1089;&#1072; &#1089; &#1076;&#1072;&#1085;&#1085;&#1099;&#1084;&#1080; &#1087;&#1072;&#1089;&#1087;&#1086;&#1088;&#1090;&#1072; &#1082;&#1091;&#1088;&#1089;&#1072;</text><polygon fill="#181818" points="658.5,609.4175,668.5,613.4175,658.5,617.4175,662.5,613.4175" style="stroke:#181818;stroke-width:1.0;"/><line style="stroke:#181818;stroke-width:1.0;stroke-dasharray:2.0,2.0;" x1="274.5" x2="664.5" y1="613.4175" y2="613.4175"/><text fill="#000000" font-family="sans-serif" font-size="13" lengthAdjust="spacing" textLength="122" x="281.5" y="608.3516">&#1055;&#1086;&#1083;&#1091;&#1095;&#1077;&#1085;&#1080;&#1077; &#1086;&#1090;&#1074;&#1077;&#1090;&#1072;</text><polygon fill="#181818" points="1049.5,638.5503,1059.5,642.5503,1049.5,646.5503,1053.5,642.5503" style="stroke:#181818;stroke-width:1.0;"/><line style="stroke:#181818;stroke-width:1.0;" x1="680.5" x2="1055.5" y1="642.5503" y2="642.5503"/><text fill="#000000" font-family="sans-serif" font-size="13" lengthAdjust="spacing" textLength="130" x="687.5" y="637.4844">&#1057;&#1086;&#1093;&#1088;&#1072;&#1085;&#1077;&#1085;&#1080;&#1077; &#1086;&#1090;&#1074;&#1077;&#1090;&#1072;</text><polygon fill="#181818" points="691.5,667.6831,681.5,671.6831,691.5,675.6831,687.5,671.6831" style="stroke:#181818;stroke-width:1.0;"/><line style="stroke:#181818;stroke-width:1.0;stroke-dasharray:2.0,2.0;" x1="685.5" x2="1065.5" y1="671.6831" y2="671.6831"/><text fill="#000000" font-family="sans-serif" font-size="13" lengthAdjust="spacing" textLength="138" x="697.5" y="666.6172">&#1056;&#1077;&#1079;&#1091;&#1083;&#1100;&#1090;&#1072;&#1090; &#1086;&#1087;&#1077;&#1088;&#1072;&#1094;&#1080;&#1080;</text><polygon fill="#181818" points="89.5,696.8159,79.5,700.8159,89.5,704.8159,85.5,700.8159" style="stroke:#181818;stroke-width:1.0;"/><line style="stroke:#181818;stroke-width:1.0;stroke-dasharray:2.0,2.0;" x1="83.5" x2="674.5" y1="700.8159" y2="700.8159"/><text fill="#000000" font-family="sans-serif" font-size="13" lengthAdjust="spacing" textLength="156" x="95.5" y="695.75">&#1086;&#1090;&#1087;&#1088;&#1072;&#1074;&#1082;&#1072; &#1091;&#1074;&#1077;&#1076;&#1086;&#1084;&#1083;&#1077;&#1085;&#1080;&#1103;</text><path d="M394,713.8159 L394,768.8159 L670,768.8159 L670,723.8159 L660,713.8159 L394,713.8159 " fill="#FEFFDD" style="stroke:#181818;stroke-width:0.5;"/><path d="M660,713.8159 L660,723.8159 L670,723.8159 L660,713.8159 " fill="#FEFFDD" style="stroke:#181818;stroke-width:0.5;"/><text fill="#000000" font-family="sans-serif" font-size="13" lengthAdjust="spacing" textLength="153" x="400" y="730.8828">&#1057;&#1082;&#1086;&#1088;&#1077;&#1077; &#1074;&#1089;&#1077;&#1075;&#1086; &#1085;&#1072; email,</text><text fill="#000000" font-family="sans-serif" font-size="13" lengthAdjust="spacing" textLength="251" x="400" y="746.0156">&#1085;&#1086; &#1077;&#1089;&#1083;&#1080; &#1073;&#1091;&#1076;&#1091;&#1090; &#1076;&#1088;&#1091;&#1075;&#1080;&#1077; &#1087;&#1088;&#1077;&#1076;&#1083;&#1086;&#1078;&#1077;&#1085;&#1080;&#1103;,</text><text fill="#000000" font-family="sans-serif" font-size="13" lengthAdjust="spacing" textLength="220" x="400" y="761.1484">&#1090;&#1086; &#1089;&#1076;&#1077;&#1083;&#1072;&#1077;&#1084; (&#1090;&#1080;&#1087;&#1072; telegram &#1073;&#1086;&#1090;&#1072;)</text><!--SRC=[bLHDRzD04BtlhnZb16h93wWKRXmuSEBQYnDlYqLYLuvJzPYaQYlKIe4Y8KujaH3dROX9Q1hdByp-8zwian8tfgY7V6ZjUVFUcxVZDP8e9lx8OxxZASzvQdksRxjiR9ypsoMlJPxV2a9LZuweykeeqN7eDUcjZW-3Xgwe0ozEWaPmu8K9LQAm6OIwglrEDUvKf1P_LLxwEdoqj1L5xwljeDxsxclbIFbUujMzjgOAVsB34pO4hWPCv_RSdb19dLzNgkK5uLxijJJnDTHazfHJAEiHBpWZdAJySqthARHFYM_jiUtQdlGO4N_chpma7l8FlkAXKhKQyRVDGZiWeMK7FE9ReDHgIZdBwCLBqKzRMxGZC1bUowbFEINyPAZ80FYx0A1YdNJYaFZILOnSdmzuRLcNOJ8ZgEcpUPJJcfWnpt0Y3_b6wkqvYHMvm09ViND9-DAUkxUx9L2EnC81vgBB_79OmFJh_x80gZ4FC1U4Z6yUugR5MPSqMNab7apiCSXTY36sBtWBk7G_NVLaNwyAN8n4nu3gGZoHso5qDXWvEyCeqHG7- -yIYlQSfpiRERm1sx6q0mYSdk0p4k9uEbX_wWXCf9Cza_wq6-9FwY8ymQtu8hE11iEpt50uPiygKl0cYlmcRi1qeniqy0ok3j3lmdNS3TsXqvcwA5riewFeB4vbbXTL2_DT3lXQOC7d33F5EvBnz46rynlZbD0N_FpVxVCQIN3emLUt5bQpl2v2B9d_vPRVFr3x3chvZJER-JNBABe92G4Pq7toP3C-7BvPexj6PYM_D5Hbzy6UE1Bpyegdf3j71tn-btSsDG80mD2LGL4-22oAPLgRUcyzh4DKP2vZgIIcvrPC9WCrfB5SczkIcBaSmNEWhJ86-M0tXZF7ifIaVE5mi3ZG-DUghTIxSA4QmSH3W-yxUeR3gPXDYMxgVQnmodSMc-TA-ReGWpy0]--></g></svg>